<?xml version="1.0" encoding="UTF-8"?>
<svg id="Calque_2" data-name="Calque 2" xmlns="http://www.w3.org/2000/svg" viewBox="0 0 194.63 100.98">
  <defs>
    <style>
      .cls-1 {
        fill: #fff;
      }
    </style>
  </defs>
  <g id="Calque_1-2" data-name="Calque 1">
    <g>
      <polygon class="cls-1" points="87.64 61.14 87.64 75.63 51.05 75.63 80.79 36.45 72.08 6.02 1.09 99.55 0 100.98 30.64 100.97 30.69 100.87 30.71 100.87 30.64 100.97 87.64 100.97 109.61 100.97 109.61 71.77 109.62 71.77 109.62 50.48 87.64 50.48 87.64 61.14"/>
      <path class="cls-1" d="M194.63,49.5c0-29.13-25.51-49.5-60.82-49.5h-12.18l-14.93,26.26h27.11c16.9,0,29.88,10.41,29.88,24.6s-12.53,24.15-29.88,24.15h-14.26v25.96h16.47l-.03-.04c33.89-.9,58.64-22.76,58.64-51.42Z"/>
    </g>
  </g>
</svg>