<?xml version="1.0" encoding="UTF-8"?>
<svg id="Calque_2" data-name="Calque 2" xmlns="http://www.w3.org/2000/svg" viewBox="0 0 353.37 347.6">
  <defs>
    <style>
      .cls-1 {
        fill: #fff;
      }

      .cls-2 {
        fill: #0a4a70;
      }

      .cls-3 {
        fill: #2eaae0;
      }

      .cls-4 {
        fill: #0a4870;
      }
    </style>
  </defs>
  <g id="Calque_1-2" data-name="Calque 1">
    <g>
      <g>
        <path class="cls-1" d="M145.65,314.32c1.15-.23,2.4-1.3,3.84-.96-.09.57.15,1.45,0,1.92-.07.22-1.33,1.66-1.69,2.39-2.36,4.81-4.81,9.59-7.18,14.4l-1.81.39-22.11-11.02c-3.41-2.51,2.58-7.68,3.02-11.09.26-.43.79-.65,1.28-.67,3.45-.16,12.38,4.39,16.87,5,2.7.37,5.17.17,7.79-.36Z"/>
        <path class="cls-1" d="M44.41,186.77c11.97,10.45,25.05,19.83,37.91,29.25,10.22,7.49,22.78,20.46,36.47,16.78,1.22-.33,1.88-.86,2.88-1.44,10.36-6.06,10.56-9.22,24.19-5.72,1.57.4,12.24,3.61,12.76,4.03.36.3.46.5.5.97.18,2.09-4.39,8.21-5.39,10.46-1.82,4.07-2.06,9.04-1.23,13.39.64,3.32,1.89,4.82,5.05,5.98,10.1,3.72,23.15,5.14,33.69,8.53.99.32,2.35.62,3.22,1.1,6.73,3.69.58,13.77-4.63,16.18-1.89.88-4.58.92-6.03,2.12s-1.37,3.3-2.63,5.04c-1.47,2.02-3.81,3.11-5.75,4.56-.42-.08-3.72.52-4.34.7-3.91,1.14-5.33,5.65-10.21,7.53-3.08,1.19-5.94.77-8.51,1.57-1.01.31-3.24,2.59-4.76,3.39-1.99,1.05-3.7,1.44-5.77,2.15-10.46-1.05-36.04-10.42-45.25-15.92-15.35-9.17-10.84-26.43-25.75-34.21-9.2-4.8-21.12-7.08-31.21-9.33-14.11-24.46-23.65-54.67-24.03-83.19-.02-1.83.98-3.78,1-5.03l27.83,21.1Z"/>
        <path class="cls-1" d="M160.18,232.93c.54-.54,2.49-1.03,3.39-1.65,2.75-1.9,3.43-5.15,5.05-7.9,6.53-17.51,18.95-35.2,25.25-52.44,3.12-8.53-1.68-25.95-4.54-34.77-3.41-10.47-5.77-15.31-17.94-13.59-9.41,1.33-18.32,5.47-27.65,7.13-.12-.96.81-1.59,1.43-2.16,5.47-5.06,15.65-13.68,22.23-16.62,19.67-8.78,31.79-3.74,50.07,4.31,17.52,7.72,35.38,17.21,49.57,30.11l.96-.03c2.62-4.04,8.64-2.07,8.08,2.72-.14,1.19-1.66,4.11-2.22,5.49-1.72,4.18-4.05,8.98-6.24,12.94-.9,1.63-3.38,6.7-4.87,7.16-1.32.41-4.08-.92-4.76-2.02-1.75-2.82,1.31-5.22-1.25-7.38-1.39-1.17-9.47-5.11-11.43-5.83-1.18-.43-2.11-.92-3.44-.91-4.85,0-17.79,7.56-22.27,10.39-3.64,2.3-8.53,4.91-10.54,8.65-10.42,19.36-18.71,40.64-29.1,60.1-.87,3.38,1.54,5.99,1.09,9.72-.18,1.53-5.85,15.51-6.59,15.97-.69.42-1.32.2-2.04.12-2.86-.34-12.89-2.99-15.64-4.06-.82-.32-1.21-.33-1.66-1.22-.94-1.86-1.56-9.39-1.2-11.52.15-.87,5.75-12.19,6.25-12.69Z"/>
      </g>
      <g>
        <path class="cls-4" d="M118.78,232.81c.24-1.14-.46-1.46-.95-2.16-1.76-2.48-3.9-4.77-5.68-7.28-61.68-86.97,10.5-203.68,115.64-187.97,57.43,8.58,103.53,61.88,100.65,120.43-.1,1.99.11,4.02.01,6.01-.94-.17-.78-1.02-.98-1.66-8.1-26.74-12.25-44.12-34.04-63.8-59.5-53.75-152.73-30.55-179.34,44.72-10.72,30.31-7.89,62.2,7.56,90.27-1,.58-1.66,1.11-2.88,1.44Z"/>
        <path class="cls-3" d="M44.41,186.77c-4.35-34.27.81-70.71,17.67-101.02C89.37,36.72,136.97,4.99,193.37.23l26.18-.23.47.72c-7.52,1.16-15.15,1.32-22.71,2.48-56.21,8.63-104.76,50.33-121.24,104.68-10.82,35.66-8.81,74.05,6.25,108.14-12.85-9.42-25.94-18.8-37.91-29.25Z"/>
      </g>
      <g>
        <path class="cls-2" d="M39.61,253.9c15.27,26.48,37.19,49.22,63.97,64.34,33.32,18.81,73.06,26.67,111.16,21.5-.37.85-2.25,1.17-3.11,1.44-52.5,16.39-115.9.3-156.2-36.2C-15.02,241.16-18.69,133.99,46.56,64.97c.45-.47,3.07-3.4,3.61-2.87-17.8,24.39-29.55,53.08-33.05,83.25-.82,7.07-.43,13.46-.54,20.32-.02,1.25-1.02,3.21-1,5.03.38,28.52,9.93,58.73,24.03,83.19Z"/>
        <path class="cls-3" d="M149.49,315.28c.14-.47-.1-1.35,0-1.92-1.43-.34-2.68.73-3.84.96-1.01-1.1-2.54-.83-3.84-.96,2.06-.71,3.78-1.1,5.77-2.15,1.52-.8,3.75-3.08,4.76-3.39,2.57-.8,5.43-.38,8.51-1.57,4.89-1.89,6.3-6.4,10.21-7.53.62-.18,3.92-.78,4.34-.7.37.07,3.03,1.62,4.06,1.94,23,6.97,48.82,7.36,72.32,2.71,42-8.31,79.13-35.16,100.91-71.77,1.01.73.65.86.35,1.77-1.23,3.62-4.99,9.62-7.1,13.05-6.13,9.96-14.78,20.97-22.74,29.54-43.24,46.61-114.13,63.23-173.71,40.03Z"/>
      </g>
    </g>
  </g>
</svg>