<?xml version="1.0" encoding="UTF-8"?>
<svg id="Calque_2" data-name="Calque 2" xmlns="http://www.w3.org/2000/svg" viewBox="0 0 112 111.99">
  <defs>
    <style>
      .cls-1 {
        fill: #273b85;
      }

      .cls-2 {
        fill: #2b4093;
      }

      .cls-3 {
        fill: #4d5e9f;
      }

      .cls-4 {
        fill: #5566a9;
      }
    </style>
  </defs>
  <g id="Calque_2-2" data-name="Calque 2">
    <g>
      <path class="cls-2" d="M95.59,16.4c-21.87-21.87-57.33-21.87-79.19,0-21.87,21.87-21.87,57.33,0,79.19,21.87,21.86,57.33,21.87,79.19,0,21.87-21.87,21.87-57.33,0-79.19ZM40.01,71.88L5.98,55.43,91.47,20.42l-35.01,85.49s-16.45-34.03-16.45-34.03Z"/>
      <polygon class="cls-4" points="83.36 28.53 17.71 55.41 43.84 68.04 56.47 94.18 83.36 28.53"/>
      <polygon class="cls-3" points="43.84 68.04 83.36 28.53 56.47 94.18 43.84 68.04"/>
      <path class="cls-1" d="M95.59,16.4s-.05-.05-.08-.07l-4.13,4.13.09-.04-35.01,85.49-16.45-34.03-.04-.02-23.65,23.65s.05.05.07.08c21.87,21.86,57.33,21.87,79.19,0,21.87-21.87,21.87-57.33,0-79.19h.01Z"/>
    </g>
  </g>
</svg>