<?xml version="1.0" encoding="UTF-8"?>
<svg id="Calque_2" data-name="Calque 2" xmlns="http://www.w3.org/2000/svg" viewBox="0 0 672.49 260.62">
  <defs>
    <style>
      .cls-1 {
        fill: #609ae7;
      }

      .cls-2 {
        fill: #fff;
      }

      .cls-3 {
        fill: #f4ae5e;
      }

      .cls-4 {
        fill: #62d588;
      }

      .cls-5 {
        fill: #e471a5;
      }
    </style>
  </defs>
  <g id="Calque_2-2" data-name="Calque 2">
    <g>
      <path class="cls-2" d="M183.58.03l-24.28,139h-35.49l13.01-75.07-43.43,56.01h-3.57l-23.6-56.99-13.36,76.05H17.38L41.83.03h35.53l22.63,59.97L145.86.03h37.72Z"/>
      <path class="cls-2" d="M288.02,33.19h-52.62l-3.57,19.46h48.05l-5.96,32.57h-47.66l-3.57,20.45h53.61l-5.76,33.36h-89.36L205.62.03h88.36l-5.96,33.16Z"/>
      <path class="cls-2" d="M368.79.03c18.27,0,32.89,7.02,43.88,21.05,10.99,14.03,14.76,30.85,11.32,50.44-3.57,19.86-12.64,36.07-27.2,48.65s-32.04,18.86-52.42,18.86h-56.94L312.19.03h56.6ZM389.09,68.93c1.72-10.46.13-18.83-4.77-25.12s-12.18-9.43-21.84-9.43h-20.06l-12.65,70.29h19.21c10.06,0,18.76-3.28,26.11-9.83s12.01-15.19,14-25.91h0Z"/>
      <path class="cls-2" d="M452.69.03h35.49l-24.48,139h-35.49L452.69.03Z"/>
      <path class="cls-2" d="M570.78,139.03l-2.18-20.06h-46.27l-9.53,20.06h-39.12L543.97.03h43.29l21.45,139h-37.93,0ZM537.02,88.39h28.2l-5.16-48.05-23.03,48.05h-.01Z"/>
    </g>
    <g>
      <path class="cls-2" d="M120.16,154.26l-17.46,98.61h-28.04l8.42-47.57-27.68,36.44h-2.54l-16.1-38.18-8.73,49.3H0l17.43-98.61h28.73l15.08,40.43,30.89-40.43h28.04,0Z"/>
      <path class="cls-2" d="M174.82,252.87l-1.13-12.68h-28.46l-5.63,12.68h-31.13l48.74-98.61h32.96l14.09,98.61h-29.44ZM155.24,217.66h16.34l-2.82-30.29-13.52,30.29h0Z"/>
      <path class="cls-2" d="M289.2,154.26l-4.79,27.33h-23.24l-12.67,71.28h-28.04l12.67-71.28h-23.24l4.79-27.33h74.52Z"/>
      <path class="cls-2" d="M300.84,154.26h28.04l-17.46,98.61h-28.04l17.46-98.61Z"/>
      <path class="cls-2" d="M389.37,152.01c8.08,0,15.31,1.53,21.69,4.58,6.39,3.05,11.41,7.07,15.07,12.04,3.66,4.98,6.24,10.59,7.75,16.83,1.5,6.25,1.74,12.66.7,19.23-1.79,11.93-6.72,22.35-14.79,31.27l7.04,9.16-20.14,15.5-7.61-9.86c-6.95,2.91-14.56,4.37-22.82,4.37-10.71,0-19.86-2.65-27.47-7.96-7.61-5.3-12.89-11.97-15.85-20s-3.73-16.46-2.32-25.29c2.25-13.62,8.71-25.33,19.37-35.15,10.66-9.81,23.78-14.72,39.37-14.72h.01ZM390.63,198.22l12.11,15.64c1.88-3,3.19-6.43,3.94-10.28,1.22-6.85-.05-12.56-3.8-17.12-3.76-4.55-9.11-6.83-16.06-6.83s-13.1,2.28-18.45,6.83c-5.35,4.56-8.64,10.26-9.86,17.12-1.22,6.86.05,12.56,3.8,17.12,3.76,4.56,9.11,6.83,16.06,6.83,1.22,0,2.11-.05,2.68-.14l-10.71-13.81,20.29-15.36Z"/>
      <path class="cls-2" d="M478.34,254.91c-12.19,0-21.61-3.33-28.27-10-6.66-6.67-9.09-15.07-7.31-25.22l11.58-65.64h28.04l-11.02,62.52c-1.22,7.35,2.13,11.02,10.06,11.02s12.79-3.67,14.02-11l11.03-62.54h28.04l-11.57,65.62c-1.97,11.09-7.01,19.74-15.12,25.94s-17.93,9.3-29.46,9.3h-.02Z"/>
      <path class="cls-2" d="M604.36,179.9h-35.92l-1.83,10.71h32.4l-4.51,25.36h-32.4l-1.97,10.99h36.63l-4.51,25.92h-64.8l17.33-98.61h64.1l-4.51,25.64h-.01Z"/>
    </g>
    <g>
      <polygon class="cls-4" points="603.16 0 624.74 0 647.66 146.45 625.75 146.45 603.16 0"/>
      <polygon class="cls-1" points="625.75 146.45 647.66 146.45 629.78 252.97 607.66 252.97 625.75 146.45"/>
      <g>
        <polygon class="cls-3" points="627.99 0 649.57 0 672.49 146.45 650.58 146.45 627.99 0"/>
        <polygon class="cls-5" points="650.58 146.45 672.49 146.45 654.61 252.97 632.49 252.97 650.58 146.45"/>
      </g>
    </g>
  </g>
</svg>