<?xml version="1.0" encoding="UTF-8"?>
<svg id="Calque_2" data-name="Calque 2" xmlns="http://www.w3.org/2000/svg" viewBox="0 0 504.7 70.8">
  <defs>
    <style>
      .cls-1 {
        fill: #fff;
      }
    </style>
  </defs>
  <g id="Calque_1-2" data-name="Calque 1">
    <g>
      <path class="cls-1" d="M0,.8h52v13.2h-18.6v55.7h-14.8V14H0V.8Z"/>
      <path class="cls-1" d="M116.8.8v68.9h-14.8v-27.7h-24.5v27.7h-14.6V.8h14.6v28.1h24.5V.8h14.8Z"/>
      <path class="cls-1" d="M133,.8h43.6v12.9h-29v15.7h25.4v12.7h-25.4v14.7h29.9v12.9h-44.5V.8Z"/>
      <path class="cls-1" d="M215,.8h43.1v12.9h-28.4v15.7h22.5v12.8h-22.5v27.5h-14.7V.8Z"/>
      <path class="cls-1" d="M278,53.4l-6.1,16.3h-15.6L281.9.8h15.9l25.5,68.9h-15.4l-6.1-16.3h-23.8ZM297.1,40.7l-7.3-24-7,24h14.3Z"/>
      <path class="cls-1" d="M341.9,49.5c.3,4.4,3.6,8.3,10.3,8.3,6,0,10-2.8,10.1-7.3.1-3.1-1.4-5.8-8.3-7.8l-8.3-2.3c-15.2-4.8-17.8-13.5-17.8-19.8,0-12.3,10.5-20.6,23.7-20.6s23.3,7.9,23.3,21.1h-14.6c0-4.7-3-7.8-8.9-7.8-5.1,0-8.9,2.8-8.9,6.9,0,1.8.6,5.1,7.4,7l8.2,2.6c16.7,4.8,19.2,14.3,18.9,20.8-.3,13.6-12.5,20.2-24.8,20.2-14.9,0-25-8.9-25-21.3h14.7Z"/>
      <path class="cls-1" d="M383.19.8h52v13.2h-18.6v55.7h-14.8V14h-18.6V.8Z"/>
      <path class="cls-1" d="M463.09,69.7v-31.2L436.49.8h17.4l16.6,25.8L487.29.8h17.4l-26.7,37.9v31h-14.9Z"/>
    </g>
  </g>
</svg>