<?xml version="1.0" encoding="UTF-8"?>
<svg id="Calque_2" data-name="Calque 2" xmlns="http://www.w3.org/2000/svg" viewBox="0 0 950.37 219.31">
  <defs>
    <style>
      .cls-1 {
        fill: #fff;
      }

      .cls-2 {
        fill: #3568aa;
      }
    </style>
  </defs>
  <g id="Calque_1-2" data-name="Calque 1">
    <path class="cls-2" d="M187.85,219.31H30.55c-18.97,0-33.35-17.12-30.08-35.81L28.18,25.27C30.74,10.66,43.42,0,58.26,0h157.31c18.97,0,33.35,17.12,30.08,35.81l-27.71,158.24c-2.56,14.61-15.25,25.27-30.08,25.27Z"/>
    <path class="cls-1" d="M115.77,182.66c-14.74,0-26.6-3.01-35.59-9.02-8.99-6.01-15.1-14.38-18.33-25.12l33.55-17.26c4.14,10.35,12.02,15.52,23.66,15.52,9.18,0,14.22-2.39,15.13-7.17.26-1.55,0-2.91-.78-4.07-.78-1.16-2.13-2.2-4.07-3.1-1.94-.9-3.75-1.68-5.43-2.33-1.68-.65-4.04-1.42-7.08-2.33-3.04-.9-5.4-1.62-7.08-2.13-24.05-8.4-34.2-23.27-30.45-44.61,2.2-12.15,8.15-21.92,17.84-29.28,9.7-7.37,21.53-11.06,35.49-11.06,11.64,0,21.59,2.71,29.87,8.15,8.27,5.43,14.55,13.25,18.81,23.47l-32.78,17.46c-3.36-8.79-9.5-13.19-18.42-13.19-6.72,0-10.6,2.33-11.64,6.98-.52,2.85.65,5.17,3.49,6.98,2.84,1.81,8.66,4.2,17.46,7.17,5.56,1.81,10.18,3.66,13.87,5.53,3.69,1.88,7.43,4.49,11.25,7.85,3.81,3.36,6.4,7.69,7.76,12.99,1.36,5.3,1.45,11.51.29,18.62-2.33,13.19-8.44,23.15-18.33,29.87-9.89,6.72-22.72,10.08-38.5,10.08Z"/>
    <path class="cls-1" d="M287.61,79.09h-49.46l-2.52,14.74h44.61l-6.21,34.91h-44.61l-2.72,15.13h50.43l-6.21,35.69h-89.21l23.86-135.76h88.25l-6.21,35.3Z"/>
    <path class="cls-1" d="M357.04,182.66c-21.08,0-37.4-6.91-48.97-20.75-11.57-13.83-15.68-31.23-12.31-52.17,3.23-20.17,12.38-36.72,27.44-49.65,15.06-12.93,32.55-19.39,52.46-19.39,26.64,0,45.71,11.12,57.21,33.36l-35.49,18.81c-5.3-9.44-13.71-14.16-25.21-14.16-9.31,0-17.52,3.1-24.63,9.31-7.11,6.21-11.51,14.1-13.19,23.66-1.55,9.18,0,16.97,4.66,23.37,4.65,6.4,11.64,9.6,20.95,9.6,10.73,0,19.98-5.04,27.73-15.13l32.2,20.36c-6.98,10.35-15.94,18.39-26.86,24.15-10.93,5.75-22.92,8.63-35.98,8.63Z"/>
    <path class="cls-1" d="M523.05,43.79h38.6l-24.04,135.76h-38.6l8.86-50.04h-33.16l-8.86,50.04h-38.6l24.04-135.76h38.6l-8.52,48.1h33.16l8.52-48.1Z"/>
    <path class="cls-1" d="M639.81,179.55l-1.55-17.46h-39.18l-7.76,17.46h-42.86l67.11-135.76h45.38l19.39,135.76h-40.53ZM612.85,131.07h22.5l-3.88-41.7-18.62,41.7Z"/>
    <path class="cls-1" d="M741.13,182.66c-16.78,0-29.75-4.59-38.92-13.77s-12.52-20.75-10.06-34.72l15.94-90.37h38.6l-15.17,86.07c-1.68,10.12,2.93,15.17,13.85,15.17s17.62-5.05,19.31-15.14l15.18-86.1h38.6l-15.93,90.34c-2.71,15.27-9.65,27.18-20.82,35.72-11.17,8.54-24.69,12.81-40.57,12.81Z"/>
    <path class="cls-1" d="M895.44,43.79c17.84,0,32.1,6.85,42.76,20.56,10.67,13.7,14.32,30.13,10.96,49.26-3.49,19.53-12.22,35.4-26.18,47.61s-31.1,18.33-51.4,18.33h-56.44l24.06-135.76h56.24ZM910.56,111.67c1.55-8.92.26-16.19-3.88-21.82-4.14-5.62-10.15-8.44-18.04-8.44h-15.52l-10.79,60.51h15.64c7.88,0,14.87-2.81,20.95-8.44,6.08-5.63,9.95-12.9,11.64-21.82Z"/>
  </g>
</svg>