<?xml version="1.0" encoding="UTF-8"?>
<svg id="Calque_2" data-name="Calque 2" xmlns="http://www.w3.org/2000/svg" viewBox="0 0 914.87 707.43">
  <defs>
    <style>
      .cls-1 {
        fill: #3853a0;
      }
    </style>
  </defs>
  <g id="Calque_1-2" data-name="Calque 1">
    <polygon class="cls-1" points="314.42 0 0 707.43 122.09 707.43 294.88 318.65 294.88 707.43 406.45 707.43 406.45 0 314.42 0"/>
    <polygon class="cls-1" points="861.14 111.58 914.87 0 534.45 0 439.58 218.93 439.58 222.26 439.58 248.28 439.58 248.28 439.58 359.85 631.15 359.85 533.75 595.86 439.57 595.86 439.57 707.43 608.4 707.43 734.25 402.48 784.75 280.12 789.63 268.29 797.89 248.28 748.05 248.28 693.76 248.28 559.64 248.28 559.64 222.26 559.73 222.26 607.7 111.57 737.32 111.57 737.31 111.58 861.14 111.58"/>
  </g>
</svg>